HIERARCHY
ROOT Hips
{
	OFFSET	0.00	0.00	0.00
	CHANNELS 6 Xposition Yposition Zposition Zrotation Xrotation Yrotation
	JOINT LeftUpLeg
	{
		OFFSET	 0.126116	-0.014019	-0.065224
		CHANNELS 3 Zrotation Xrotation Yrotation
		JOINT LeftLeg
		{
			OFFSET	 0.000000	 0.000000	 0.569914
			CHANNELS 3 Zrotation Xrotation Yrotation
			JOINT LeftFoot
			{
				OFFSET	 0.000000	 0.000000	 0.544423
				CHANNELS 3 Zrotation Xrotation Yrotation
				JOINT LeftToeBase
				{
					OFFSET	 0.000000	 0.000000	 0.207117
					CHANNELS 3 Zrotation Xrotation Yrotation
					End Site
					{
						OFFSET	 0.000000	 0.000000	 0.207117
					}
				}
			}
		}
	}
	JOINT RightUpLeg
	{
		OFFSET	-0.124023	-0.008373	-0.065224
		CHANNELS 3 Zrotation Xrotation Yrotation
		JOINT RightLeg
		{
			OFFSET	 0.000000	 0.000000	 0.570047
			CHANNELS 3 Zrotation Xrotation Yrotation
			JOINT RightFoot
			{
				OFFSET	 0.000000	 0.000000	 0.544354
				CHANNELS 3 Zrotation Xrotation Yrotation
				JOINT RightToeBase
				{
					OFFSET	 0.000000	 0.000000	 0.207540
					CHANNELS 3 Zrotation Xrotation Yrotation
					End Site
					{
						OFFSET	 0.000000	 0.000000	 0.207540
					}
				}
			}
		}
	}
	JOINT Spine
	{
		OFFSET	 0.000184	-0.007763	 0.117403
		CHANNELS 3 Zrotation Xrotation Yrotation
		JOINT Spine1
		{
			OFFSET	 0.000000	 0.000000	 0.137269
			CHANNELS 3 Zrotation Xrotation Yrotation
			JOINT Spine2
			{
				OFFSET	 0.000000	 0.000000	 0.156879
				CHANNELS 3 Zrotation Xrotation Yrotation
				JOINT LeftShoulder
				{
					OFFSET	 0.080501	-0.002496	 0.160144
					CHANNELS 3 Zrotation Xrotation Yrotation
					JOINT LeftArm
					{
						OFFSET	 0.000000	 0.000000	 0.164363
						CHANNELS 3 Zrotation Xrotation Yrotation
						JOINT LeftForeArm
						{
							OFFSET	 0.000000	 0.000000	 0.364576
							CHANNELS 3 Zrotation Xrotation Yrotation
							JOINT LeftHand
							{
								OFFSET	 0.000000	 0.000000	 0.360812
								CHANNELS 3 Zrotation Xrotation Yrotation
								JOINT LeftHandIndex1
								{
									OFFSET	 0.000000	 0.000000	 0.086006
									CHANNELS 3 Zrotation Xrotation Yrotation
									JOINT LeftHandIndex2
									{
										OFFSET	 0.000000	 0.000000	 0.047236
										CHANNELS 3 Zrotation Xrotation Yrotation
										JOINT LeftHandIndex3
										{
											OFFSET	-0.004284	-0.000551	 0.038166
											CHANNELS 3 Zrotation Xrotation Yrotation
											End Site
											{
												OFFSET	-0.004284	-0.000551	 0.038166
											}
										}
									}
								}
							}
						}
					}
				}
				JOINT Neck
				{
					OFFSET	 0.000000	 0.000000	 0.176489
					CHANNELS 3 Zrotation Xrotation Yrotation
					JOINT Head
					{
						OFFSET	 0.000000	-0.001747	 0.077940
						CHANNELS 3 Zrotation Xrotation Yrotation
						End Site
						{
							OFFSET	 0.000000	-0.001747	 0.077940
						}
					}
				}
				JOINT RightShoulder
				{
					OFFSET	-0.080363	 0.000306	 0.159706
					CHANNELS 3 Zrotation Xrotation Yrotation
					JOINT RightArm
					{
						OFFSET	 0.000000	 0.000000	 0.164196
						CHANNELS 3 Zrotation Xrotation Yrotation
						JOINT RightForeArm
						{
							OFFSET	 0.000000	 0.000000	 0.365611
							CHANNELS 3 Zrotation Xrotation Yrotation
							JOINT RightHand
							{
								OFFSET	 0.000000	 0.000000	 0.360648
								CHANNELS 3 Zrotation Xrotation Yrotation
								JOINT RightHandIndex1
								{
									OFFSET	 0.000000	 0.000000	 0.069977
									CHANNELS 3 Zrotation Xrotation Yrotation
									JOINT RightHandIndex2
									{
										OFFSET	 0.000000	 0.000000	 0.052305
										CHANNELS 3 Zrotation Xrotation Yrotation
										JOINT RightHandIndex3
										{
											OFFSET	 0.009002	-0.000782	 0.042196
											CHANNELS 3 Zrotation Xrotation Yrotation
											End Site
											{
												OFFSET	 0.009002	-0.000782	 0.042196
											}
										}
									}
								}
							}
						}
					}
				}
			}
		}
	}
}
MOTION
Frames:    10
Frame Time: 0.03333334
 5.022888	-0.864575	-0.412506	 162.463600	 3.923449	-0.935789	 9.948539	 16.987790	-176.339400	-6.130210	-11.623670	 1.541942	-21.203790	 89.265110	 24.691250	-2.299289	 39.892790	-0.272757	 3.941347	-45.829730	 179.370600	-0.733981	-45.066720	 3.288257	-177.342900	 83.366320	-178.640300	 2.406026	 20.495590	-0.163252	-3.920281	 2.043997	 2.727759	-5.928400	-5.449202	 0.729221	-6.774997	-9.361836	-1.623919	-91.776180	 78.527400	 180.000000	 45.460410	 63.832480	-60.768800	-7.054138	-5.144545	-29.058030	 5.596633	-2.103564	-5.366299	-3.812334	 37.924440	-2.927599	-2.450526	 36.184240	 0.754587	-1.378229	 35.397820	-2.634230	-0.126438	 5.049085	-2.341556	-1.567170	-23.988540	-3.245821	 89.782100	 78.203850	-180.000000	-35.869590	 75.367290	 39.616260	 3.943911	-7.285669	 21.003070	-15.481770	-3.276327	 9.543818	 6.437017	 35.671460	-0.771858	 2.830251	 35.756010	-7.813440	-2.350882	 35.473990	 5.254307
 5.023646	-0.854207	-0.416430	 159.666800	 4.004832	-0.845854	 9.778575	 17.356020	-176.295200	-6.015643	-11.624190	 1.537999	-17.331240	 89.197410	 20.796880	-2.293257	 40.418040	-0.286889	 4.219520	-45.876990	 179.694100	-0.730458	-43.184310	 3.253312	-177.108400	 83.679730	-178.654600	 2.402166	 22.934550	-0.114187	-3.961748	 2.163926	 2.749553	-5.965077	-5.239104	 0.720748	-6.776379	-9.086164	-1.629017	-91.776180	 78.527400	-180.000000	 41.654820	 62.085850	-56.867120	-6.660681	-4.585481	-27.609210	 4.817677	-2.106488	-5.365472	-3.812334	 37.924440	-2.927599	-2.450526	 36.184240	 0.754587	-1.378229	 35.397820	-2.634230	-0.173832	 4.829196	-2.362480	-1.570155	-23.246810	-3.190002	 89.782090	 78.203830	-180.000000	-31.008210	 72.970830	 34.934320	 3.927145	-6.555747	 20.099950	-14.269200	-3.278927	 9.541955	 6.437017	 35.671460	-0.771858	 2.830251	 35.756010	-7.813440	-2.350882	 35.473990	 5.254307
 5.029169	-0.837851	-0.419353	 160.119800	 4.082825	-1.022786	 9.501620	 18.045830	-176.285900	-5.793208	-11.624720	 1.534383	-11.508280	 89.047770	 14.952910	-2.279635	 41.539900	-0.317709	 4.440050	-45.747480	-179.850400	-0.296856	-42.462650	 3.566353	-176.458700	 84.329710	-178.883400	 2.392609	 26.381880	-0.042849	-4.056186	 2.080180	 2.740536	-6.073087	-5.270967	 0.647883	-6.851741	-9.065561	-1.665505	-91.776180	 78.527400	 180.000000	 42.342880	 62.212570	-57.640060	-6.445192	-4.588259	-26.831360	 5.028254	-2.113780	-5.363622	-3.812334	 37.924440	-2.927599	-2.450526	 36.184240	 0.754587	-1.378229	 35.397820	-2.634230	-0.252020	 4.991944	-2.310753	-1.634629	-23.506160	-3.232557	 89.782090	 78.203890	-180.000000	-30.473270	 73.140980	 34.053370	 3.875850	-6.495295	 19.746430	-14.376990	-3.282279	 9.539632	 6.437017	 35.671460	-0.771858	 2.830251	 35.756010	-7.813440	-2.350882	 35.473990	 5.254307
 5.035432	-0.820361	-0.419436	 160.513500	 4.159322	-1.165335	 9.250867	 18.784840	-176.357400	-5.540009	-11.624580	 1.535559	-6.404993	 88.816180	 9.855396	-2.265416	 42.627070	-0.348445	 4.684551	-45.580860	-179.440400	-0.000754	-42.115910	 3.833033	-175.968700	 85.044770	-179.058700	 2.382241	 28.920470	 0.011546	-4.148703	 2.004561	 2.694310	-6.170338	-5.294656	 0.576178	-6.898250	-9.031395	-1.701830	-91.776180	 78.527400	-180.000000	 43.006280	 62.460880	-58.297830	-6.291521	-4.582095	-25.972680	 5.254920	-2.121910	-5.361274	-3.812334	 37.924440	-2.927599	-2.450526	 36.184240	 0.754587	-1.378229	 35.397820	-2.634230	-0.329694	 5.129731	-2.301247	-1.693624	-23.667650	-3.229336	 89.782120	 78.203870	 180.000000	-30.037140	 73.335570	 33.336470	 3.839712	-6.442736	 19.408470	-14.498520	-3.287140	 9.536009	 6.437017	 35.671460	-0.771858	 2.830251	 35.756010	-7.813440	-2.350882	 35.473990	 5.254307
 5.043295	-0.799327	-0.419423	 160.905600	 4.258141	-1.283670	 9.000609	 19.664510	-176.526200	-5.218789	-11.623630	 1.542877	-1.689051	 88.385900	 5.182130	-2.245974	 43.998040	-0.388534	 4.939770	-45.291260	-179.060200	 0.303457	-42.132020	 4.152965	-175.500800	 85.861760	-179.222500	 2.375995	 30.175100	 0.039123	-4.248578	 1.903250	 2.594306	-6.266351	-5.331958	 0.476069	-6.926775	-8.976674	-1.738392	-91.776180	 78.527400	 180.000000	 43.723040	 62.876510	-58.920270	-6.198551	-4.564318	-24.939380	 5.524758	-2.132804	-5.358025	-3.812334	 37.924440	-2.927599	-2.450526	 36.184240	 0.754587	-1.378229	 35.397820	-2.634230	-0.417990	 5.202629	-2.285321	-1.755640	-23.723150	-3.197369	 89.782120	 78.203870	 180.000000	-29.401580	 73.607230	 32.418160	 3.872583	-6.391138	 19.051290	-14.643020	-3.293520	 9.531078	 6.437017	 35.671460	-0.771858	 2.830251	 35.756010	-7.813440	-2.350882	 35.473990	 5.254307
 5.051512	-0.777978	-0.421220	 161.263700	 4.370638	-1.380208	 8.791433	 20.540970	-176.762200	-4.877104	-11.621930	 1.555782	 1.424898	 87.734280	 2.149736	-2.221515	 45.564070	-0.436314	 5.175796	-44.890530	-178.720900	 0.664934	-42.494770	 4.549987	-175.565800	 86.703780	-178.854900	 2.377427	 29.899910	 0.033040	-4.351895	 1.771045	 2.468276	-6.356932	-5.388680	 0.366036	-6.946440	-8.930381	-1.775580	-91.776180	 78.527380	-180.000000	 44.362780	 63.401760	-59.387910	-6.193324	-4.537257	-23.916160	 5.793066	-2.145766	-5.353964	-3.812334	 37.924440	-2.927599	-2.450526	 36.184240	 0.754587	-1.378229	 35.397820	-2.634230	-0.503413	 5.159120	-2.253234	-1.805652	-23.652420	-3.125565	 89.782090	 78.203830	-180.000000	-28.754030	 73.881810	 31.504880	 3.926055	-6.347348	 18.736400	-14.779830	-3.299794	 9.525990	 6.437017	 35.671460	-0.771858	 2.830251	 35.756010	-7.813440	-2.350882	 35.473990	 5.254307
 5.060775	-0.754416	-0.422214	 161.606700	 4.487200	-1.461899	 8.603347	 21.486360	-177.080800	-4.482643	-11.619300	 1.575497	 3.379218	 86.718070	 0.330269	-2.188748	 47.438510	-0.496655	 5.329290	-44.359220	-178.462700	 1.394228	-43.166330	 5.211422	-174.785800	 87.824800	-179.132900	 2.381392	 29.100530	 0.015476	-4.468393	 1.621973	 2.283175	-6.442020	-5.473152	 0.253027	-6.930151	-8.902761	-1.820599	-91.776180	 78.527400	 180.000000	 44.892980	 64.105670	-59.570940	-6.279741	-4.500118	-22.837100	 6.081145	-2.161895	-5.348736	-3.812334	 37.924440	-2.927599	-2.450526	 36.184240	 0.754587	-1.378229	 35.397820	-2.634230	-0.591901	 5.045748	-2.206090	-1.849400	-23.486350	-3.014857	 89.782090	 78.203830	-180.000000	-28.011330	 74.174600	 30.474210	 4.004400	-6.304782	 18.436410	-14.912520	-3.306067	 9.520846	 6.437017	 35.671460	-0.771858	 2.830251	 35.756010	-7.813440	-2.350882	 35.473990	 5.254307
 5.069378	-0.733147	-0.422334	 161.860900	 4.515625	-1.489742	 8.485686	 22.314670	-177.445900	-4.110967	-11.616210	 1.598467	 4.329904	 85.496800	-0.453459	-2.155061	 49.153360	-0.555265	 5.206520	-43.857030	-178.509500	 2.638649	-43.922430	 6.131255	-174.568600	 89.123740	-178.653900	 2.379661	 29.456880	 0.023277	-4.569282	 1.499432	 2.041169	-6.495712	-5.566901	 0.157414	-6.879148	-8.908463	-1.858952	-91.776180	 78.527400	-180.000000	 45.192900	 64.841260	-59.423610	-6.434227	-4.462700	-21.920860	 6.333439	-2.177068	-5.343676	-3.812334	 37.924440	-2.927599	-2.450526	 36.184240	 0.754587	-1.378229	 35.397820	-2.634230	-0.669122	 4.932937	-2.154608	-1.886721	-23.296460	-2.903458	 89.782120	 78.203870	 180.000000	-27.295140	 74.423710	 29.488420	 4.089956	-6.269044	 18.203090	-15.010770	-3.310818	 9.516972	 6.437017	 35.671460	-0.771858	 2.830251	 35.756010	-7.813440	-2.350882	 35.473990	 5.254307
 5.079490	-0.708283	-0.421726	 162.071900	 4.470823	-1.440968	 8.454432	 23.252500	-177.959200	-3.681428	-11.610890	 1.637077	 4.893956	 83.662090	-0.734989	-2.113589	 51.030400	-0.623702	 4.776659	-43.247970	-178.798600	 4.532619	-44.862060	 7.414224	 6.812471	 89.101250	 0.897665	 2.373420	 30.650020	 0.049699	-4.645986	 1.364343	 1.655450	-6.506212	-5.678467	 0.040254	-6.812110	-8.949464	-1.874207	-91.776180	 78.527400	-180.000000	 45.332490	 65.792620	-58.935120	-6.702487	-4.417373	-20.937150	 6.615652	-2.194612	-5.337401	-3.812334	 37.924440	-2.927599	-2.450526	 36.184240	 0.754587	-1.378229	 35.397820	-2.634230	-0.761767	 4.837466	-2.084575	-1.931937	-23.088390	-2.752805	 89.782120	 78.203870	 180.000000	-26.384810	 74.688730	 28.237920	 4.205392	-6.227962	 17.971770	-15.094360	-3.314805	 9.513871	 6.437017	 35.671460	-0.771858	 2.830251	 35.756010	-7.813440	-2.350882	 35.473990	 5.254307
 5.089548	-0.683705	-0.420429	 162.195500	 4.423919	-1.359177	 8.514192	 24.153080	-178.473500	-3.340844	-11.605420	 1.675775	 5.068113	 81.375180	-0.586883	-2.078852	 52.440590	-0.678494	 4.276480	-42.588710	-179.160900	 5.987754	-45.726280	 8.364541	 6.635012	 87.680410	 1.665915	 2.370317	 31.198840	 0.062012	-4.645228	 1.193610	 1.260926	-6.452026	-5.776896	-0.085623	-6.770241	-8.992695	-1.841357	-91.776180	 78.527400	 180.000000	 45.234520	 66.806500	-58.145570	-7.099221	-4.359421	-20.076330	 6.834433	-2.210831	-5.331451	-3.812334	 37.924440	-2.927599	-2.450526	 36.184240	 0.754587	-1.378229	 35.397820	-2.634230	-0.853266	 4.798680	-2.006823	-1.964712	-22.949180	-2.575366	 89.782090	 78.203830	-180.000000	-25.494490	 74.917070	 27.015650	 4.322559	-6.189711	 17.782780	-15.150240	-3.317542	 9.511786	 6.437017	 35.671460	-0.771858	 2.830251	 35.756010	-7.813440	-2.350882	 35.473990	 5.254307
